<svg width="25" height="25" viewBox="0 0 25 25" fill="none" xmlns="http://www.w3.org/2000/svg">
<ellipse cx="12.7779" cy="12.4038" rx="12.2222" ry="12.1279" fill="url(#paint0_linear)"/>
<path d="M16.7996 7.55273H9.36756C8.52847 7.55273 7.88916 8.18708 7.88916 9.01966V16.3939C7.88916 17.2265 8.52847 17.8608 9.36756 17.8608H16.7996C17.6386 17.8608 18.278 17.2265 18.278 16.3939V9.01966C18.278 8.18708 17.6386 7.55273 16.7996 7.55273ZM13.0836 15.7992C14.8017 15.7992 16.2002 14.4512 16.2002 12.8257C16.2002 12.5482 16.1602 12.231 16.0803 11.9931H16.9594V16.1957C16.9594 16.3939 16.7995 16.5921 16.5598 16.5921H9.60731C9.40752 16.5921 9.20774 16.4336 9.20774 16.1957V11.9535H10.1267C10.0468 12.231 10.0069 12.5086 10.0069 12.7861C9.96692 14.4512 11.3654 15.7992 13.0836 15.7992ZM13.0836 14.6098C11.9648 14.6098 11.0857 13.7376 11.0857 12.6671C11.0857 11.5967 11.9648 10.7245 13.0836 10.7245C14.2024 10.7245 15.0814 11.5967 15.0814 12.6671C15.0814 13.7772 14.2024 14.6098 13.0836 14.6098ZM16.9194 10.3676C16.9194 10.6055 16.7196 10.8038 16.4799 10.8038H15.3611C15.1214 10.8038 14.9216 10.6055 14.9216 10.3676V9.29718C14.9216 9.0593 15.1214 8.86107 15.3611 8.86107H16.4799C16.7196 8.86107 16.9194 9.0593 16.9194 9.29718V10.3676Z" fill="white"/>
<defs>
<linearGradient id="paint0_linear" x1="5.75011" y1="21.803" x2="21.8145" y2="5.00271" gradientUnits="userSpaceOnUse">
<stop stop-color="#EEA054"/>
<stop offset="0.502762" stop-color="#D64763"/>
<stop offset="1" stop-color="#B62A99"/>
</linearGradient>
</defs>
</svg>
