<svg width="40" height="40" viewBox="0 0 40 40" fill="none" xmlns="http://www.w3.org/2000/svg">
<path d="M19.9999 36.6668C29.2047 36.6668 36.6666 29.2049 36.6666 20.0002C36.6666 10.7954 29.2047 3.3335 19.9999 3.3335C10.7952 3.3335 3.33325 10.7954 3.33325 20.0002C3.33325 29.2049 10.7952 36.6668 19.9999 36.6668Z" stroke="#1064B1" stroke-width="2" stroke-linecap="round" stroke-linejoin="round"/>
<path d="M35.2833 13.3335H20" stroke="#1064B1" stroke-width="2" stroke-linecap="round" stroke-linejoin="round"/>
<path d="M19.9999 26.6668C23.6818 26.6668 26.6666 23.6821 26.6666 20.0002C26.6666 16.3183 23.6818 13.3335 19.9999 13.3335C16.318 13.3335 13.3333 16.3183 13.3333 20.0002C13.3333 23.6821 16.318 26.6668 19.9999 26.6668Z" stroke="#1064B1" stroke-width="2" stroke-linecap="round" stroke-linejoin="round"/>
<path d="M18.1333 36.5668L25.7666 23.3335" stroke="#1064B1" stroke-width="2" stroke-linecap="round" stroke-linejoin="round"/>
<path d="M6.58325 10.1001L14.2333 23.3334" stroke="#1064B1" stroke-width="2" stroke-linecap="round" stroke-linejoin="round"/>
</svg>
