<svg width="40" height="40" viewBox="0 0 40 40" fill="none" xmlns="http://www.w3.org/2000/svg">
<path d="M36.6666 28.1998V33.1998C36.6685 33.664 36.5734 34.1235 36.3875 34.5487C36.2015 34.974 35.9288 35.3558 35.5868 35.6696C35.2447 35.9834 34.8409 36.2223 34.4012 36.371C33.9615 36.5197 33.4956 36.5749 33.0333 36.5332C27.9047 35.9759 22.9783 34.2234 18.65 31.4165C14.623 28.8576 11.2089 25.4435 8.64997 21.4165C5.83327 17.0685 4.08037 12.1182 3.5333 6.9665C3.49165 6.50561 3.54643 6.0411 3.69414 5.60254C3.84185 5.16398 4.07925 4.76098 4.39125 4.4192C4.70324 4.07742 5.08298 3.80435 5.50629 3.61737C5.9296 3.43039 6.3872 3.33361 6.84997 3.33317H11.85C12.6588 3.32521 13.443 3.61163 14.0562 4.13906C14.6695 4.66648 15.0701 5.39891 15.1833 6.19984C15.3943 7.79995 15.7857 9.37105 16.35 10.8832C16.5742 11.4797 16.6227 12.128 16.4898 12.7513C16.3569 13.3746 16.0481 13.9467 15.6 14.3998L13.4833 16.5165C15.8559 20.6891 19.3107 24.1439 23.4833 26.5165L25.6 24.3998C26.0531 23.9517 26.6252 23.6429 27.2485 23.51C27.8718 23.3771 28.5201 23.4256 29.1166 23.6498C30.6288 24.2141 32.1999 24.6055 33.8 24.8165C34.6096 24.9307 35.349 25.3385 35.8775 25.9623C36.4061 26.5861 36.6869 27.3825 36.6666 28.1998Z" stroke="#1064B1" stroke-width="2" stroke-linecap="round" stroke-linejoin="round"/>
</svg>
