<svg width="40" height="40" viewBox="0 0 40 40" fill="none" xmlns="http://www.w3.org/2000/svg">
<path d="M30.0001 3.33337H10.0001C8.15913 3.33337 6.66675 4.82576 6.66675 6.66671V33.3334C6.66675 35.1743 8.15913 36.6667 10.0001 36.6667H30.0001C31.841 36.6667 33.3334 35.1743 33.3334 33.3334V6.66671C33.3334 4.82576 31.841 3.33337 30.0001 3.33337Z" stroke="#1064B1" stroke-width="2" stroke-linecap="round" stroke-linejoin="round"/>
<path d="M19.9999 30C23.6818 30 26.6666 27.0152 26.6666 23.3333C26.6666 19.6514 23.6818 16.6666 19.9999 16.6666C16.318 16.6666 13.3333 19.6514 13.3333 23.3333C13.3333 27.0152 16.318 30 19.9999 30Z" stroke="#1064B1" stroke-width="2" stroke-linecap="round" stroke-linejoin="round"/>
<path d="M20 10H20.0167" stroke="#1064B1" stroke-width="2" stroke-linecap="round" stroke-linejoin="round"/>
</svg>
