<svg width="36" height="30" viewBox="0 0 36 30" fill="none" xmlns="http://www.w3.org/2000/svg">
<path d="M13.9833 2.65005C14.3704 2.26058 14.8478 1.97279 15.373 1.81229C15.8982 1.65178 16.455 1.62353 16.9937 1.73004C17.5325 1.83655 18.0366 2.07452 18.4612 2.42279C18.8858 2.77107 19.2178 3.21887 19.4276 3.72637C19.6375 4.23388 19.7187 4.78537 19.664 5.33182C19.6094 5.87828 19.4206 6.40276 19.1143 6.85865C18.8081 7.31454 18.394 7.68771 17.9088 7.94499C17.4237 8.20227 16.8824 8.33569 16.3333 8.33339H1.33325M18.9833 27.3501C19.3704 27.7395 19.8478 28.0273 20.373 28.1878C20.8982 28.3483 21.455 28.3766 21.9937 28.2701C22.5325 28.1636 23.0366 27.9256 23.4612 27.5773C23.8858 27.229 24.2178 26.7812 24.4276 26.2737C24.6375 25.7662 24.7187 25.2147 24.664 24.6683C24.6094 24.1218 24.4206 23.5973 24.1143 23.1415C23.8081 22.6856 23.394 22.3124 22.9088 22.0551C22.4237 21.7978 21.8824 21.6644 21.3333 21.6667H1.33325M27.5499 7.88339C28.0347 7.39986 28.6311 7.04324 29.2865 6.84507C29.9418 6.6469 30.6359 6.61329 31.3074 6.7472C31.9788 6.88111 32.6069 7.17842 33.1362 7.61283C33.6654 8.04725 34.0794 8.60538 34.3415 9.23787C34.6037 9.87036 34.706 10.5577 34.6393 11.2391C34.5727 11.9205 34.3391 12.575 33.9593 13.1447C33.5795 13.7144 33.0652 14.1817 32.4618 14.5053C31.8584 14.8289 31.1846 14.9988 30.4999 15.0001H1.33325" stroke="#1064B1" stroke-width="2" stroke-linecap="round" stroke-linejoin="round"/>
</svg>
