<svg width="40" height="40" viewBox="0 0 40 40" fill="none" xmlns="http://www.w3.org/2000/svg">
<path d="M19.9999 36.6667C29.2047 36.6667 36.6666 29.2048 36.6666 20C36.6666 10.7953 29.2047 3.33337 19.9999 3.33337C10.7952 3.33337 3.33325 10.7953 3.33325 20C3.33325 29.2048 10.7952 36.6667 19.9999 36.6667Z" stroke="#1064B1" stroke-width="2" stroke-linecap="round" stroke-linejoin="round"/>
<path d="M35.2833 13.3334H20" stroke="#1064B1" stroke-width="2" stroke-linecap="round" stroke-linejoin="round"/>
<path d="M19.9999 26.6667C23.6818 26.6667 26.6666 23.6819 26.6666 20C26.6666 16.3181 23.6818 13.3334 19.9999 13.3334C16.318 13.3334 13.3333 16.3181 13.3333 20C13.3333 23.6819 16.318 26.6667 19.9999 26.6667Z" stroke="#1064B1" stroke-width="2" stroke-linecap="round" stroke-linejoin="round"/>
<path d="M18.1333 36.5667L25.7666 23.3334" stroke="#1064B1" stroke-width="2" stroke-linecap="round" stroke-linejoin="round"/>
<path d="M6.58325 10.1L14.2333 23.3333" stroke="#1064B1" stroke-width="2" stroke-linecap="round" stroke-linejoin="round"/>
</svg>
