<svg width="25" height="25" viewBox="0 0 25 25" fill="none" xmlns="http://www.w3.org/2000/svg">
<ellipse cx="12.2222" cy="12.4038" rx="12.2222" ry="12.1279" fill="#7294C7"/>
<path d="M18.2149 15.5064C18.2149 15.4561 18.1642 15.4561 18.1642 15.4057C17.9612 15.0029 17.5046 14.4994 16.8958 13.9455C16.5914 13.6937 16.4391 13.4923 16.3377 13.3916C16.1855 13.1902 16.1855 13.0391 16.2362 12.8377C16.2869 12.6866 16.4899 12.4349 16.845 11.9817C17.048 11.7299 17.1495 11.5789 17.3017 11.4278C18.0627 10.4208 18.4179 9.76616 18.3164 9.46404L18.2657 9.41369C18.2149 9.36334 18.1642 9.31298 18.0627 9.31298C17.9612 9.26263 17.809 9.26263 17.6568 9.31298H15.7288C15.6781 9.31298 15.6781 9.31298 15.5766 9.31298C15.5259 9.31298 15.4752 9.31298 15.4752 9.31298H15.4244H15.3737L15.3229 9.36333C15.2722 9.41369 15.2722 9.41368 15.2722 9.46404C15.0693 10.0179 14.8156 10.4711 14.5619 10.9746C14.4097 11.2264 14.2575 11.4782 14.1053 11.6796C13.9531 11.881 13.8516 12.0321 13.7501 12.1328C13.6486 12.2335 13.5472 12.2838 13.4964 12.3845C13.4457 12.4349 13.3442 12.4852 13.3442 12.4349C13.2935 12.4349 13.2427 12.4349 13.2427 12.3845C13.192 12.3342 13.1413 12.2838 13.0905 12.2335C13.0398 12.1831 13.0398 12.0824 12.9891 11.9817C12.9891 11.881 12.9891 11.7803 12.9891 11.7299C12.9891 11.6796 12.9891 11.5285 12.9891 11.4278C12.9891 11.2768 12.9891 11.176 12.9891 11.1257C12.9891 10.9746 12.9891 10.7732 12.9891 10.5718C12.9891 10.3704 12.9891 10.2193 12.9891 10.1186C12.9891 10.0179 12.9891 9.86687 12.9891 9.76616C12.9891 9.6151 12.9891 9.51439 12.9891 9.46404C12.9891 9.41368 12.9383 9.31298 12.9383 9.26263C12.8876 9.21227 12.8369 9.16192 12.7861 9.11157C12.7354 9.06121 12.6339 9.06121 12.5832 9.01086C12.3295 8.96051 12.0251 8.91016 11.6699 8.91016C10.8581 8.91016 10.3 8.96051 10.0971 9.06122C9.99562 9.11157 9.89415 9.16192 9.84341 9.26263C9.74194 9.36333 9.74193 9.41369 9.79267 9.41369C10.0464 9.46404 10.2493 9.56474 10.3508 9.7158L10.4015 9.81652C10.4523 9.86687 10.4522 9.96757 10.503 10.1186C10.5537 10.2697 10.5537 10.4207 10.5537 10.6222C10.5537 10.9243 10.5537 11.2264 10.5537 11.4278C10.5537 11.6796 10.503 11.8306 10.503 11.9817C10.503 12.1328 10.4523 12.2335 10.4015 12.2838C10.3508 12.3845 10.3508 12.4349 10.3 12.4349C10.3 12.4349 10.3 12.4852 10.2493 12.4852C10.1986 12.4852 10.1478 12.5356 10.0464 12.5356C9.99562 12.5356 9.89415 12.4852 9.84341 12.4349C9.74194 12.3845 9.64047 12.2838 9.58973 12.1831C9.48826 12.0824 9.38678 11.9313 9.28531 11.7299C9.18383 11.5285 9.03162 11.3271 8.93015 11.025L8.82868 10.8236C8.77795 10.7229 8.67647 10.5215 8.575 10.2697C8.47353 10.0179 8.37205 9.81652 8.27058 9.56475C8.21984 9.46404 8.16911 9.41369 8.11837 9.36333H8.06763C8.06763 9.36333 8.01689 9.31298 7.96616 9.31298C7.91542 9.31298 7.86469 9.26263 7.81395 9.26263H5.98744C5.78449 9.26263 5.68302 9.31298 5.63228 9.36333L5.58154 9.41369C5.58154 9.41369 5.58154 9.46404 5.58154 9.51439C5.58154 9.56475 5.58155 9.6151 5.63228 9.7158C5.88596 10.32 6.19038 10.9243 6.4948 11.5285C6.79922 12.0824 7.10364 12.5859 7.30659 12.9384C7.56027 13.2909 7.76321 13.6434 8.0169 13.9455C8.27058 14.2476 8.42278 14.449 8.47352 14.5497C8.57499 14.6504 8.62573 14.7008 8.67646 14.7511L8.82868 14.9022C8.93015 15.0029 9.08236 15.154 9.28531 15.305C9.48825 15.4561 9.74193 15.6071 9.99561 15.7582C10.2493 15.9092 10.5537 16.01 10.8581 16.1107C11.2133 16.2114 11.5177 16.2617 11.8221 16.2114H12.5832C12.7354 16.2114 12.8369 16.161 12.9383 16.0603L12.9891 16.01C12.9891 15.9596 13.0398 15.9596 13.0398 15.9092C13.0398 15.8589 13.0398 15.8085 13.0398 15.7078C13.0398 15.5064 13.0398 15.3554 13.0905 15.2043C13.1413 15.0532 13.1413 14.9525 13.192 14.8518C13.2428 14.7511 13.2935 14.7008 13.3442 14.6504C13.395 14.6001 13.4457 14.5497 13.4457 14.5497H13.4964C13.5979 14.4994 13.7501 14.5497 13.8516 14.6504C14.0038 14.7511 14.156 14.9022 14.2575 15.0532C14.3589 15.2043 14.5112 15.3554 14.7141 15.5568C14.9171 15.7582 15.0693 15.9093 15.1707 15.9596L15.3229 16.0603C15.4244 16.1107 15.5259 16.161 15.6781 16.2114C15.8303 16.2617 15.9318 16.2617 16.0333 16.2617L17.7583 16.2114C17.9105 16.2114 18.0627 16.161 18.1642 16.1107C18.2657 16.0603 18.3164 16.01 18.3164 15.9092C18.3164 15.8589 18.3164 15.7582 18.3164 15.7078C18.2149 15.6071 18.2149 15.5568 18.2149 15.5064Z" fill="white"/>
</svg>
